<svg viewBox="0 0 511.995 511.995" xmlns="http://www.w3.org/2000/svg"><path d="M509.413 170.169c-3.907-10.734-11.761-19.306-22.114-24.133-37.48-17.478-79.522-19.312-118.383-5.169l-40.603 14.778-115.882-57.353a15.006 15.006 0 00-11.784-.652l-69.188 25.183a15 15 0 00-3.625 26.275l73.43 52.791-102.049 37.142-37.867-30.704a15 15 0 00-14.578-2.444l-36.9 13.431A15 15 0 00.906 238.54l23.504 64.576c7.648 21.014 23.022 37.792 43.29 47.242 20.268 9.452 43.002 10.444 64.016 2.796l89.902-32.722-19.386 76.126a15 15 0 0019.666 17.797l69.189-25.183a15 15 0 008.608-8.074l46.456-105.993 137.703-50.119c22.159-8.067 33.625-32.657 25.559-54.817zM168.39 141.306l36.486-13.279 84.465 41.804-53.958 19.639zm305.202 55.488l-143.734 52.314a15 15 0 00-8.608 8.074l-46.456 105.993-36.487 13.28 19.386-76.126a15 15 0 00-19.666-17.797l-116.572 42.429c-13.484 4.908-28.072 4.271-41.077-1.793s-22.87-16.83-27.777-30.313l-18.374-50.481 14.824-5.396 37.867 30.704a15.007 15.007 0 0014.578 2.444l277.682-101.068c31.331-11.404 65.227-9.924 95.444 4.167 3.09 1.441 5.435 4 6.602 7.205 2.406 6.616-1.017 13.957-7.632 16.364z"/></svg>
