<svg xmlns="http://www.w3.org/2000/svg" viewBox="0 0 512.002 512.002"><path d="M347.391 349.114v-21.468a9.975 9.975 0 001.765.171 9.997 9.997 0 009.073-5.795l4.931-10.64 4.592 2.128a10.012 10.012 0 007.647.316 9.998 9.998 0 005.631-5.184l15.936-34.387c2.322-5.011.143-10.956-4.868-13.278l-4.592-2.128 4.931-10.64c2.322-5.011.143-10.956-4.868-13.278L347.39 216.31v-3.896c0-15.256-12.412-27.669-27.669-27.669h-.919c2.891-5.046 4.535-10.761 4.535-16.819v-23.848l14.86-45.301c1.721-5.248-1.137-10.897-6.385-12.619-5.248-1.72-10.898 1.138-12.619 6.385l-2.528 7.705c-8.97-.216-19.309-1.075-24.221-5.211v-16.82c0-5.523-4.477-10-10-10s-10 4.477-10 10v16.819c-4.911 4.136-15.25 4.995-24.221 5.211l-2.528-7.705c-1.722-5.248-7.372-8.105-12.619-6.385-5.247 1.722-8.106 7.371-6.385 12.619l14.86 45.301v23.848c0 5.506 1.359 10.729 3.775 15.424l-12.098-3.587-54.356-95.933v-9.972h1.701c5.523 0 10-4.477 10-10 0-4.888-3.509-8.95-8.144-9.821a32.566 32.566 0 002.668-12.937V10c0-5.523-4.477-10-10-10h-22.756c-18.063 0-32.757 14.695-32.757 32.758v8.34c0 4.593.954 8.966 2.668 12.937-4.635.871-8.145 4.933-8.145 9.821 0 5.523 4.477 10 10 10h1.411v33.059c0 5.523 4.477 10 10 10h6.823v13.077c0 5.523 4.477 10 10 10a9.956 9.956 0 006.532-2.438l43.153 89.306-2.757 7.686a10 10 0 002.928 10.99l12.763 10.872c-2.153 4.931-3.935 10.422-5.887 16.435l-.117.361a9.99 9.99 0 00-.489 3.088V379.449a10 10 0 003.865 7.897 9.98 9.98 0 002.034 1.219v77.554c-12.454.232-22.515 10.428-22.515 22.936v2.947h-18.466c-5.523 0-10 4.477-10 10s4.477 10 10 10h206.999c5.523 0 10-4.477 10-10s-4.477-10-10-10h-16.375v-2.947c0-12.508-10.061-22.704-22.515-22.936V358.233a10 10 0 005.897-9.119zm19.698-57.956l-4.585-2.125-.007-.004-3.899-1.807 7.527-16.24 3.899 1.807h.001l4.592 2.128-7.528 16.241zm-47.366-86.415c4.228 0 7.669 3.44 7.669 7.669v16.057l-30.238 65.246a9.946 9.946 0 00-.801 5.791 9.991 9.991 0 005.67 7.487l24.707 11.45.663.307v22.594l-98.925 25.233v-29.72l16.896-2.226c13.147-1.732 25.595-5.997 36.998-12.675 4.766-2.791 6.366-8.917 3.575-13.683-2.792-4.767-8.917-6.367-13.683-3.575-9.089 5.323-19.015 8.722-29.503 10.104l-14.284 1.882v-9.451c49.212-5.812 87.761-48.158 87.761-98.66v-3.83h3.495zm-20.075 209.926c-5.523 0-10 4.477-10 10v41.439h-10.75v-22.531c0-5.523-4.477-10-10-10s-10 4.477-10 10v22.531h-24.533v-80.394l87.128-22.224v102.618h-11.845v-41.439c0-5.523-4.477-10-10-10zm-17.203-229.926c-11.325 0-20.893-7.702-20.893-16.818v-16.588h41.785v16.588c.001 9.116-9.567 16.818-20.892 16.818zm0-72.272c7.973 5.228 18.254 6.938 27.743 7.525l-3.72 11.34h-48.046l-3.72-11.34c9.49-.588 19.77-2.298 27.743-7.525zm-60.178 117.195l.001-.002 10.471-29.188 13 3.854c.923.274 1.88.413 2.843.413h47.645v3.829c0 39.533-29.578 72.81-67.761 78.488v-9.187c2.479-7.626 4.675-14.19 7.453-18.524a10 10 0 00-1.934-13.01l-13.557-11.548 1.839-5.125zM158.875 86.465v10.45H145.519V73.856h13.356v12.609zm6.224-45.367c0 7.035-5.723 12.758-12.758 12.758-7.034 0-12.757-5.723-12.757-12.758v-8.34c0-7.035 5.723-12.758 12.757-12.758h12.758v21.098zm46.391 159.38l-41.322-85.516.038-.023c.125-.068.242-.147.365-.218.32-.184.638-.37.944-.574.164-.109.318-.23.477-.345.208-.15.422-.291.622-.45l42.942 75.79-4.066 11.336zm132.518 288.577v2.947H211.85v-2.947c0-1.598 1.35-2.947 2.948-2.947h126.263c1.597 0 2.947 1.349 2.947 2.947zm-24.503-196.003l25.799-55.667 24.783 11.486-.752 1.623c-.036-.013-.073-.021-.108-.034-.13-.046-.262-.08-.393-.122a15.336 15.336 0 00-1.052-.305c-.148-.036-.296-.065-.444-.097a14.72 14.72 0 00-1.036-.19c-.142-.021-.285-.038-.427-.055a15.419 15.419 0 00-1.075-.089c-.131-.006-.261-.013-.392-.016a15.95 15.95 0 00-1.115.017c-.118.006-.237.008-.355.017-.38.028-.759.073-1.137.129-.109.016-.219.026-.328.044-.383.064-.765.149-1.145.242-.099.024-.2.041-.298.067-.469.125-.936.269-1.398.438-.477.175-.944.373-1.402.593-.384.184-.753.39-1.117.602-.068.04-.139.072-.207.112-.431.259-.847.539-1.248.837l-.005.003c-.409.303-.801.626-1.178.967-.358.325-.698.668-1.025 1.025-.021.023-.045.044-.066.067-.304.336-.588.69-.862 1.053-.04.053-.085.101-.125.154-.261.355-.502.728-.734 1.106-.043.07-.093.135-.135.206-.269.455-.518.925-.743 1.41l-5.568 12.014-5.568 12.014c-.022.048-.037.097-.059.145-.194.43-.372.864-.525 1.302-.06.173-.102.348-.156.522-.098.317-.199.634-.276.953-.048.2-.079.401-.119.601-.059.295-.121.59-.163.887-.03.212-.044.425-.065.637-.028.285-.058.569-.071.854-.009.219-.005.436-.006.655 0 .278-.001.555.013.831.011.221.034.44.055.66.025.271.052.541.091.809.032.221.074.439.116.659.05.263.103.525.166.784.053.219.114.435.176.651.074.254.151.507.237.757a16.225 16.225 0 001.561 3.264c.139.221.286.437.437.652.133.19.266.379.407.563.16.208.329.408.5.609.151.177.3.355.459.526.181.194.373.379.565.565.167.162.332.327.507.482.203.18.418.348.632.518.182.145.359.293.548.431.229.166.472.318.713.473.19.123.374.252.571.367.027.016.052.035.079.051l-.753 1.625-2.69-1.247-.001-.001-22.093-10.236z"/><path d="M299.648 385.11c-5.523 0-10 4.477-10 10v.475c0 5.523 4.477 10 10 10s10-4.477 10-10v-.475c0-5.523-4.477-10-10-10z"/></svg>
