<svg xmlns="http://www.w3.org/2000/svg" viewBox="0 0 512 512"><path d="M502 492h-17.271c-47.737-28.367-83.497-75.15-109.412-121.936 2.483-1.82 4.103-4.749 4.103-8.063 0-5.523-4.478-10-10-10h-3.642c-8.665-17.202-16.023-34.078-22.176-49.694-12.937-32.836-23.722-68.551-31.739-104.116 4.351-1.084 7.58-5.006 7.58-9.693 0-5.523-4.478-10-10-10h-1.735c-6.779-34.43-10.837-68.192-11.582-98.497 5.465-.066 9.875-4.518 9.875-9.999 0-5.523-4.478-10-10-10H286v-10c0-13.037-8.361-24.153-20.001-28.281V10c0-5.523-4.478-10-10-10s-10 4.477-10 10v11.72c-11.64 4.128-20.001 15.244-20.001 28.281v10h-10c-5.522 0-10 4.477-10 10 0 5.481 4.41 9.933 9.875 9.999-.744 30.305-4.803 64.066-11.582 98.497h-1.737c-5.522 0-10 4.477-10 10 0 4.687 3.229 8.61 7.581 9.693-8.018 35.565-18.802 71.28-31.74 104.116-6.153 15.615-13.511 32.492-22.176 49.693h-3.641c-5.522 0-10 4.477-10 10 0 3.314 1.619 6.243 4.103 8.063-25.914 46.787-61.674 93.57-109.41 121.938H10c-5.522 0-10 4.477-10 10s4.478 10 10 10h492c5.522 0 10-4.477 10-10s-4.478-10-10-10zM245.999 50.001C245.999 44.487 250.485 40 256 40s10.001 4.486 10.001 10.001v10h-20.002zm-10.115 30.001h40.233c.698 30.733 4.536 64.278 11.073 98.496h-62.38c6.537-34.219 10.375-67.763 11.074-98.496zm-48.879 229.636c13.982-35.486 25.397-73.468 33.686-111.141h70.618c8.289 37.672 19.704 75.654 33.686 111.141 5.281 13.404 11.424 27.703 18.496 42.362h-41.736a545.65 545.65 0 01-10.038-23.692c-10.332-26.097-19.08-53.745-26-82.174a10.001 10.001 0 00-19.434 0c-6.919 28.429-15.667 56.077-26 82.173a545.673 545.673 0 01-10.039 23.692h-41.735c7.071-14.657 13.215-28.957 18.496-42.361zM279.887 352h-47.775a571.434 571.434 0 006.767-16.329c6.296-15.9 12.021-32.352 17.121-49.19 5.102 16.838 10.826 33.29 17.121 49.19A572.544 572.544 0 00279.887 352zm-121.519 20h195.264c23.136 43.429 54.467 87.867 95.745 120h-93.895c-3.276-32.37-22.3-61.557-51.052-77.5-4.832-2.679-10.917-.935-13.595 3.896-2.679 4.83-.935 10.917 3.896 13.595 22.416 12.429 37.444 34.913 40.63 60.009H176.64c3.186-25.094 18.212-47.576 40.624-60.006 4.83-2.679 6.574-8.765 3.896-13.595s-8.768-6.574-13.595-3.895c-28.749 15.943-47.77 45.129-51.046 77.496H62.624c41.278-32.133 72.608-76.571 95.744-120z"/><path d="M256 422c5.522 0 10-4.477 10-10s-4.478-10-10-10h-.007c-5.522 0-9.996 4.477-9.996 10s4.481 10 10.003 10z"/></svg>
