<svg xmlns="http://www.w3.org/2000/svg" viewBox="0 0 512.001 512.001"><path d="M222.26 444.633a8.451 8.451 0 00-11.312-3.851c-5.41 2.662-9.682 4.764-19.184 4.764-9.492 0-13.77-2.103-19.187-4.765-6.196-3.047-13.22-6.5-26.642-6.5-13.415 0-20.437 3.453-26.631 6.499-5.415 2.663-9.693 4.766-19.187 4.766-9.491 0-13.77-2.103-19.186-4.765-6.198-3.047-13.225-6.5-26.653-6.5-13.422 0-20.445 3.453-26.642 6.5-5.417 2.663-9.694 4.765-19.187 4.765a8.45 8.45 0 10.001 16.899c13.422 0 20.445-3.453 26.642-6.5 5.417-2.663 9.694-4.765 19.187-4.765 9.5 0 13.78 2.104 19.199 4.768 6.196 3.046 13.22 6.498 26.64 6.498 13.424 0 20.447-3.454 26.643-6.501 5.413-2.662 9.69-4.764 19.174-4.764 9.492 0 13.77 2.103 19.187 4.765 6.196 3.047 13.22 6.5 26.642 6.5 13.435 0 20.453-3.454 26.646-6.501a8.45 8.45 0 003.85-11.312zM503.552 472.021H8.452a8.45 8.45 0 000 16.898h495.1a8.45 8.45 0 000-16.898z"/><path d="M503.551 439.914h-7.411V262.852a8.45 8.45 0 00-16.898 0v27.601h-4.881v-12.956a8.45 8.45 0 00-16.898 0v12.956h-4.881v-12.956a8.45 8.45 0 00-16.898 0v12.956h-4.883v-27.601a8.45 8.45 0 00-16.898 0v63.279h-10.139v-11.078a8.45 8.45 0 00-16.898 0v11.078h-7.886v-11.078a8.45 8.45 0 00-16.898 0v11.078H351.94v-63.279a8.45 8.45 0 00-16.898 0v27.601h-4.881v-12.956a8.45 8.45 0 00-16.898 0v12.956h-4.881v-60.52c4.523-.163 8.143-3.871 8.143-8.433v-72.43a8.45 8.45 0 00-8.449-8.449h-.363L295.771 119.8V91.808c0-.826-.121-1.648-.359-2.44l-18.179-60.277a8.45 8.45 0 00-16.18 0l-18.179 60.277a8.434 8.434 0 00-.359 2.44v27.991l-11.94 20.821h-.363a8.45 8.45 0 00-8.449 8.449v72.43c0 4.563 3.62 8.271 8.143 8.433v131.683h-98.052v-10.892a8.45 8.45 0 00-16.898 0v10.892H8.452a8.45 8.45 0 000 16.898h106.501v22.108c-14.459-9.478-31.352-14.58-49.027-14.58-23.955 0-46.49 9.341-63.449 26.302-3.3 3.3-3.3 8.65 0 11.948 3.3 3.3 8.65 3.3 11.948 0 13.769-13.769 32.059-21.352 51.501-21.352s37.732 7.583 51.501 21.352a8.445 8.445 0 0011.948 0c13.769-13.769 32.059-21.352 51.501-21.352 18.3 0 35.577 6.722 49.026 18.995v26.428a8.45 8.45 0 008.449 8.449h265.2a8.45 8.45 0 000-16.897zm-273.648-39.293c-14.459-9.478-31.351-14.578-49.026-14.578s-34.566 5.101-49.026 14.58v-22.107h98.052v22.105zm39.238-339.828l6.807 22.566h-13.612l6.805-22.566zm-9.73 39.465h19.46v13.343h-19.46v-13.343zm-3.555 30.241h26.57l5.804 10.121h-38.178l5.804-10.121zm-17.198 27.02h60.966v55.532h-60.966v-55.532zm39.492 96.884a8.45 8.45 0 00-8.449 8.449v177.062h-22.9v-21.593-188.372h44.681v60.504h-4.883v-27.601a8.45 8.45 0 00-8.449-8.449zm56.892 185.512H286.6V307.352h48.442v132.563zm78.859 0H351.94V343.03h61.961v96.885zm65.341 0H430.8V307.352h48.442v132.563z"/><path d="M299.931 316.364a8.45 8.45 0 00-8.449 8.449v27.52a8.45 8.45 0 0016.898 0v-27.52a8.45 8.45 0 00-8.449-8.449zM321.711 316.364a8.45 8.45 0 00-8.449 8.449v27.52a8.45 8.45 0 0016.898 0v-27.52a8.45 8.45 0 00-8.449-8.449zM299.931 380.095a8.45 8.45 0 00-8.449 8.449v27.521a8.45 8.45 0 0016.898 0v-27.521a8.45 8.45 0 00-8.449-8.449zM321.711 380.095a8.45 8.45 0 00-8.449 8.449v27.521a8.45 8.45 0 0016.898 0v-27.521a8.45 8.45 0 00-8.449-8.449zM444.131 316.364a8.45 8.45 0 00-8.449 8.449v27.52a8.45 8.45 0 0016.898 0v-27.52a8.448 8.448 0 00-8.449-8.449zM465.911 316.364a8.45 8.45 0 00-8.449 8.449v27.52a8.45 8.45 0 0016.898 0v-27.52a8.45 8.45 0 00-8.449-8.449zM444.131 380.095a8.45 8.45 0 00-8.449 8.449v27.521a8.45 8.45 0 0016.898 0v-27.521a8.448 8.448 0 00-8.449-8.449zM465.911 380.095a8.45 8.45 0 00-8.449 8.449v27.521a8.45 8.45 0 0016.898 0v-27.521a8.45 8.45 0 00-8.449-8.449zM269.141 160.101c-13.886 0-25.183 11.297-25.183 25.183s11.297 25.183 25.183 25.183 25.183-11.297 25.183-25.183-11.297-25.183-25.183-25.183zm0 33.469c-4.568 0-8.285-3.717-8.285-8.285s3.717-8.285 8.285-8.285 8.285 3.716 8.285 8.285-3.717 8.285-8.285 8.285zM370.528 356.924a8.45 8.45 0 00-8.449 8.449v52.573a8.45 8.45 0 0016.898 0v-52.573a8.448 8.448 0 00-8.449-8.449zM395.313 356.924a8.45 8.45 0 00-8.449 8.449v52.573a8.45 8.45 0 0016.898 0v-52.573a8.45 8.45 0 00-8.449-8.449zM176.136 94.01h-41.135a25.67 25.67 0 001.573-8.872c0-14.209-11.56-25.769-25.769-25.769H51.093c-14.209 0-25.77 11.56-25.77 25.769 0 14.211 11.561 25.77 25.77 25.77h.874a25.668 25.668 0 00-1.573 8.871c0 14.209 11.56 25.77 25.77 25.77h99.971c14.209 0 25.769-11.56 25.769-25.77.001-14.21-11.558-25.769-25.768-25.769zm0 34.641H76.165c-4.892 0-8.872-3.98-8.872-8.872s3.98-8.871 8.872-8.871a8.45 8.45 0 000-16.898H51.093c-4.892 0-8.872-3.98-8.872-8.872 0-4.892 3.98-8.871 8.872-8.871h59.711c4.892 0 8.871 3.979 8.871 8.871s-3.979 8.872-8.871 8.872a8.45 8.45 0 000 16.898h65.332c4.892 0 8.871 3.979 8.871 8.871s-3.979 8.872-8.871 8.872zM469.25 161.542c.31-1.441.472-2.935.472-4.467 0-11.715-9.531-21.246-21.246-21.246H374.61c-11.715 0-21.247 9.531-21.247 21.246 0 11.716 9.531 21.247 21.247 21.247h27.472a21.261 21.261 0 00-.447 4.347c0 11.715 9.531 21.247 21.246 21.247h44.12c11.715 0 21.247-9.531 21.247-21.247 0-10.956-8.336-20-18.998-21.127zm-2.249 25.476h-44.12a4.352 4.352 0 01-4.347-4.349 4.352 4.352 0 014.347-4.347 8.45 8.45 0 000-16.898h-48.272a4.354 4.354 0 01-4.349-4.349 4.354 4.354 0 014.35-4.347h73.867a4.352 4.352 0 014.347 4.347 4.354 4.354 0 01-4.347 4.349 8.45 8.45 0 000 16.898h18.524a4.354 4.354 0 014.349 4.347 4.355 4.355 0 01-4.349 4.349z"/></svg>
