<svg viewBox="0 0 512.02 512.02" xmlns="http://www.w3.org/2000/svg"><g clip-rule="evenodd" fill-rule="evenodd"><g fill="#faf7f6"><path d="M86.121 42.121l106.337 106.337 8.586 8.586 22.727-22.727a31.879 31.879 0 006.024-8.375c5.971-12.028 3.963-27.093-6.023-37.08l-69.468-69.469c-12.5-12.5-32.954-12.5-45.455 0zM166.02 236.613c-11.246-3.824-24.23-1.272-33.157 7.655l-69.469 69.468c-12.5 12.5-12.5 32.954 0 45.455l22.727 22.727 79.899-79.899 35.024-35.024-22.727-22.727a31.853 31.853 0 00-12.297-7.655zM288.268 289.722c-12.5 12.5-12.5 32.954 0 45.454l27.843 27.843 29.909 29.909 11.717 11.717c12.5 12.5 32.954 12.5 45.455 0l22.727-22.727-79.899-79.899-35.024-35.024zM342.092 185.792c12.029 5.974 27.096 3.967 37.084-6.021l69.469-69.468c12.5-12.5 12.5-32.954 0-45.455l-22.727-22.727-106.336 106.336-8.587 8.587 22.727 22.727a31.882 31.882 0 008.37 6.021z"/></g><path d="M310.995 157.044l8.587-8.587c-16.311-16.313-38.812-26.437-63.562-26.437a89.246 89.246 0 00-26.225 3.922 31.872 31.872 0 01-6.024 8.375l-22.727 22.727-8.586-8.586c-16.313 16.313-26.438 38.812-26.438 63.562v24.593a31.846 31.846 0 0112.297 7.655l22.727 22.727-35.024 35.024v61h150.091l-27.843-27.843c-12.5-12.5-12.5-32.954 0-45.454l22.727-22.727 35.024 35.024v-90a89.229 89.229 0 00-3.927-26.227 31.882 31.882 0 01-8.37-6.021zm-54.975 32.475c12.426 0 22.5 10.074 22.5 22.5s-10.074 22.5-22.5 22.5-22.5-10.074-22.5-22.5 10.073-22.5 22.5-22.5z" fill="#e6d5cf"/><circle cx="256.02" cy="212.019" fill="#c68a65" r="22.5"/><path d="M316.111 363.02H166.02v139h60v-50c0-16.5 13.5-30 30.001-30 16.5 0 30 13.5 30 30v50h60V392.929z" fill="#ddb9a3"/><path d="M286.02 452.02c0-16.5-13.5-30-30-30-16.501 0-30.001 13.5-30.001 30v50h60v-50z" fill="#c68a65"/></g><path d="M386.248 186.842l69.469-69.468c7.935-7.935 12.304-18.518 12.304-29.799s-4.369-21.864-12.304-29.799L432.989 35.05c-3.906-3.904-10.236-3.904-14.143 0l-99.611 99.611c-17.847-14.663-39.958-22.641-63.216-22.641-4.329 0-8.636.296-12.904.853.013-.427.031-.854.031-1.283 0-11.281-4.369-21.864-12.304-29.799l-69.469-69.468c-16.432-16.431-43.165-16.429-59.597 0L79.05 35.05c-3.905 3.905-3.905 10.237 0 14.143l25.64 25.64c3.906 3.904 10.236 3.904 14.143 0 3.905-3.905 3.905-10.237 0-14.143l-18.568-18.568 15.656-15.656c8.635-8.633 22.681-8.631 31.312 0L216.7 95.933c8.633 8.633 8.633 22.68 0 31.313l-15.656 15.656-18.572-18.572c-3.906-3.904-10.236-3.904-14.143 0-3.905 3.905-3.905 10.237 0 14.143l10.334 10.334c-14.662 17.85-22.644 39.965-22.644 63.214v12.865c-10.934-.111-21.903 3.988-30.229 12.312l-69.469 69.469c-16.431 16.431-16.431 43.166 0 59.597l22.728 22.728c1.953 1.952 4.512 2.929 7.071 2.929s5.118-.977 7.071-2.929l62.827-62.827v26.857c-5.522 0-10 4.478-10 10s4.478 10 10 10v129c0 5.522 4.478 10 10 10h180c5.522 0 10-4.478 10-10V416.24a42.07 42.07 0 0024.443 7.802c10.792 0 21.584-4.107 29.8-12.322l22.727-22.728c3.905-3.905 3.905-10.237 0-14.143l-76.97-76.97V212.02c0-4.322-.296-8.623-.852-12.885.427.013.854.031 1.282.031 10.792-.001 21.585-4.11 29.8-12.324zm39.67-130.579l15.656 15.656c8.633 8.633 8.633 22.68 0 31.313L372.105 172.7c-4.156 4.157-9.717 6.446-15.655 6.446-5.939 0-11.5-2.289-15.656-6.446l-15.656-15.655zm-195.075 85.125a42.208 42.208 0 005.584-6.914 79.444 79.444 0 0119.593-2.454c17.914 0 34.974 5.95 48.973 16.885l-1.068 1.068-33.119 33.119c-4.439-2.278-9.462-3.573-14.786-3.573s-10.347 1.295-14.786 3.573l-26.047-26.047zm12.676 70.631c0-6.893 5.607-12.5 12.5-12.5s12.5 5.607 12.5 12.5-5.607 12.5-12.5 12.5-12.5-5.608-12.5-12.5zm-67.5.001c0-17.906 5.951-34.97 16.886-48.972l1.067 1.067 33.119 33.119a32.287 32.287 0 00-3.572 14.784 32.293 32.293 0 003.573 14.786l-26.048 26.048-15.656-15.656a41.983 41.983 0 00-9.368-7.049V212.02zM86.121 367.775l-15.656-15.656c-8.633-8.633-8.633-22.679 0-31.312l69.469-69.469c4.316-4.316 9.986-6.475 15.655-6.475 5.67 0 11.34 2.158 15.656 6.475l15.656 15.656zm89.898-61.613l32.096-32.096 33.12-33.12c4.439 2.278 9.462 3.572 14.784 3.572s10.346-1.294 14.784-3.572l26.049 26.049-15.655 15.656c-16.431 16.431-16.431 43.166 0 59.597l10.771 10.771H176.019zm60 185.858v-40c0-11.028 8.972-20 20-20s20 8.972 20 20v40zm60 0v-40c0-22.056-17.944-40-40-40s-40 17.944-40 40v40h-40v-119h135.949l24.051 24.052v94.948zm100.101-94.446c-8.633 8.633-22.682 8.633-31.313 0l-69.468-69.469c-4.157-4.156-6.446-9.717-6.446-15.655 0-5.939 2.289-11.5 6.446-15.656l15.655-15.656 100.781 100.78zM336.019 212.02v65.857l-17.953-17.953-33.12-33.12a32.29 32.29 0 003.573-14.786 32.281 32.281 0 00-3.572-14.784l26.048-26.048 15.656 15.655a42.17 42.17 0 006.908 5.581 79.394 79.394 0 012.46 19.598z"/><path d="M153.583 99.582c0-5.522-4.478-10-10-10h-.008c-5.522 0-9.996 4.478-9.996 10s4.481 10 10.004 10 10-4.478 10-10z"/></svg>
