<svg xmlns="http://www.w3.org/2000/svg" viewBox="0 0 512 512"><path d="M431.262 80.738c-3.91-3.9-10.239-3.9-14.139 0-3.91 3.91-3.91 10.239 0 14.139 3.9 3.91 10.229 3.91 14.139 0 3.899-3.9 3.899-10.23 0-14.139z"/><path d="M497.341 14.665c-19.534-19.548-51.158-19.556-70.7-.003L125.915 315.38c-34.543-9.29-71.06.354-96.603 25.897-39.081 39.081-39.084 102.327 0 141.411 39.081 39.081 102.327 39.084 141.411 0 25.544-25.544 35.188-62.06 25.897-96.602l24.478-24.478v-.001L497.335 85.361c19.544-19.529 19.559-51.157.006-70.696zM214.029 340.394l-14.138-14.144 34.465-34.465 14.141 14.14-34.468 34.469zm48.61-48.611l-14.14-14.14 28.285-28.285L290.92 263.5l-28.281 28.283zm42.422-42.423l-14.137-14.142 28.278-28.279 14.142 14.137-28.283 28.284zm42.423-42.426l-14.141-14.136 28.284-28.284 14.138 14.138-28.281 28.282zM483.197 71.217l-93.29 93.293-14.138-14.138 27.207-27.207c3.905-3.905 3.905-10.236 0-14.142-3.906-3.904-10.235-3.904-14.142 0L134.772 363.086c-23.416-16.652-56.197-14.507-77.185 6.471-23.381 23.394-23.381 61.459 0 84.853a.008.008 0 01.004.004c23.393 23.379 61.457 23.381 84.857-.004 20.971-20.983 23.118-53.763 6.467-77.181l36.836-36.836 14.138 14.144-21.639 21.639a9.997 9.997 0 00-2.408 10.255c9.751 29.022 2.371 60.487-19.261 82.118-31.264 31.266-81.861 31.27-113.128 0-31.266-31.264-31.27-81.861 0-113.128 21.598-21.601 53.058-29.026 82.118-19.26a10.003 10.003 0 0010.255-2.408L440.784 28.8c11.719-11.725 30.682-11.736 42.416.005 11.727 11.72 11.734 30.684-.003 42.412zm-354.89 369.05c-15.597 15.59-40.976 15.59-56.576.002-15.588-15.599-15.588-40.978-.002-56.572 15.598-15.592 40.979-15.59 56.574-.004 15.591 15.599 15.591 40.979.004 56.574z"/></svg>
