<svg viewBox="0 0 512.001 512" xmlns="http://www.w3.org/2000/svg"><path d="M282.813 159.91v21.246a39.52 39.52 0 00-10.32 4.274l-15.024-15.028c-3.903-3.902-10.227-3.902-14.137 0-3.902 3.903-3.902 10.23 0 14.133l15.027 15.028a39.55 39.55 0 00-4.273 10.316H232.84c-5.52 0-9.992 4.476-9.992 9.996s4.472 9.992 9.992 9.992h21.246a39.41 39.41 0 004.273 10.32l-15.027 15.028c-3.902 3.902-3.902 10.23 0 14.133a9.999 9.999 0 0014.137 0l15.023-15.028a39.52 39.52 0 0010.32 4.274v21.246a9.99 9.99 0 009.993 9.992c5.52 0 9.996-4.473 9.996-9.992v-21.246a39.495 39.495 0 0010.316-4.274l15.024 15.028c3.902 3.902 10.23 3.902 14.136 0 3.903-3.907 3.903-10.235 0-14.137l-15.027-15.027a39.362 39.362 0 004.273-10.317h21.247c5.52 0 9.996-4.472 9.996-9.996 0-5.52-4.477-9.992-9.996-9.992h-21.243a39.44 39.44 0 00-4.273-10.316l15.023-15.028c3.903-3.902 3.903-10.23 0-14.133s-10.23-3.902-14.132 0l-15.028 15.028a39.495 39.495 0 00-10.316-4.274V159.91c0-5.52-4.477-9.992-9.996-9.992a9.99 9.99 0 00-9.992 9.992zm24.12 45.832l.004.004.008.008c3.77 3.766 5.848 8.781 5.848 14.121a19.843 19.843 0 01-5.856 14.133c-.003 0-.003.004-.007.004-3.766 3.773-8.782 5.851-14.125 5.851a19.838 19.838 0 01-14.13-5.855l-.007-.008c-3.773-3.77-5.852-8.785-5.852-14.125s2.079-10.355 5.864-14.137a19.83 19.83 0 0114.125-5.851c5.34 0 10.351 2.074 14.129 5.855zm0 0M435.488 86.523a9.99 9.99 0 01-9.992 9.993c-5.52 0-9.996-4.473-9.996-9.993 0-5.52 4.477-9.996 9.996-9.996 5.52 0 9.992 4.477 9.992 9.996zm0 0"/><path d="M503.234 150.125l-38.87-38.871c-3.903-3.902-10.231-3.902-14.134 0-3.902 3.906-3.902 10.234 0 14.137l38.872 38.867c3.894 3.894 3.894 10.234 0 14.129l-21.207 21.207-155.47-155.477 21.196-21.195a9.996 9.996 0 0114.14 0l38.864 38.867a9.999 9.999 0 0014.137 0c3.902-3.906 3.902-10.234 0-14.137L361.895 8.79c-11.715-11.715-30.688-11.719-42.407 0-29.36 29.375-28.61 28.527-29.285 29.461L66.676 346.41 8.84 403.996c-11.684 11.625-11.875 30.633-.05 42.457a772954.7 772954.7 0 0056.534 56.531c11.645 11.66 30.649 11.715 42.356.051l57.914-57.676c309.164-224.261 308.57-223.765 309.367-224.562l28.273-28.274c11.688-11.691 11.688-30.707 0-42.398zM156.06 257.227c-3.977 48.793 10.761 98.597 44.336 138.195l-40.266 29.207L87.39 351.89zM93.574 488.875c-3.894 3.879-10.226 3.875-14.113-.02l-21.234-21.234 14.14-14.129c3.903-3.902 3.906-10.23.004-14.133-3.902-3.906-10.23-3.906-14.137-.004l-14.14 14.133-21.168-21.168a9.986 9.986 0 01.015-14.152l51.34-51.121 70.668 70.668zm123.051-105.23c-39.309-45.485-51.684-107.985-32.277-165.418l115.16-158.758 153.039 153.047zm0 0"/></svg>
