<svg xmlns="http://www.w3.org/2000/svg" viewBox="0 0 512 512"><path d="M174.798 388.747a9.966 9.966 0 003.866.782c3.907 0 7.618-2.304 9.225-6.133l64.758-154.303c2.138-5.092-.259-10.953-5.351-13.09-5.095-2.138-10.954.258-13.091 5.351l-64.758 154.303c-2.137 5.092.259 10.953 5.351 13.09zM199.375 247.585c0-21.81-16.087-39.553-35.859-39.553s-35.858 17.743-35.858 39.553 16.086 39.553 35.858 39.553 35.859-17.744 35.859-39.553zm-35.859 19.552c-8.744 0-15.858-8.771-15.858-19.553s7.114-19.553 15.858-19.553c8.745 0 15.859 8.771 15.859 19.553s-7.114 19.553-15.859 19.553zM256.484 400.032c19.772 0 35.858-17.743 35.858-39.553s-16.086-39.553-35.858-39.553-35.859 17.743-35.859 39.553 16.087 39.553 35.859 39.553zm0-59.106c8.744 0 15.858 8.771 15.858 19.553s-7.114 19.553-15.858 19.553c-8.745 0-15.859-8.771-15.859-19.553s7.114-19.553 15.859-19.553z"/><path d="M486.926 110.567L402.847 3.813a10.001 10.001 0 00-15.712 0l-84.081 106.754c-.598.759-1.184 1.524-1.76 2.293C273 99.204 241.625 92 210 92 94.206 92 0 186.206 0 302s94.206 210 210 210c39.357 0 77.729-10.955 110.966-31.681 4.687-2.922 6.116-9.09 3.194-13.776-2.922-4.687-9.09-6.117-13.776-3.194C280.324 482.092 245.612 492 210 492c-104.767 0-190-85.233-190-190s85.233-190 190-190c27.901 0 55.58 6.193 80.663 17.946-22.563 44.347-14.795 99.405 21.578 135.777C334.344 287.827 363.731 300 394.989 300c1.665 0 3.324-.042 4.978-.111.008.704.033 1.409.033 2.111 0 35.875-10.045 70.807-29.048 101.018-2.94 4.675-1.534 10.848 3.141 13.789a9.996 9.996 0 0013.789-3.14C408.894 380.262 420 341.648 420 302c0-1.547-.039-3.102-.073-4.655 21.74-4.695 41.71-15.52 57.812-31.621 41.902-41.901 45.851-108.604 9.187-155.157zM394.989 280c-25.916 0-50.281-10.092-68.606-28.418-34.741-34.74-38.016-90.043-7.616-128.64h-.001l76.225-96.779 76.223 96.779c30.399 38.597 27.125 93.9-7.616 128.641C445.271 269.908 420.906 280 394.989 280z"/><path d="M351.34 433.5c-2.64 0-5.22 1.07-7.07 2.93a10.08 10.08 0 00-2.93 7.07 10.1 10.1 0 002.93 7.08 10.05 10.05 0 007.07 2.92c2.63 0 5.2-1.06 7.07-2.92a10.103 10.103 0 002.93-7.08c0-2.63-1.07-5.21-2.93-7.07s-4.44-2.93-7.07-2.93z"/></svg>
