<svg xmlns="http://www.w3.org/2000/svg" viewBox="0 0 1000 1000"><path d="M665.24 53.44c-54.98 6.04-104.14 29.97-142.95 69l-17.9 18.11-14.88-7.12c-23.93-11.43-38.38-14.23-65.76-13.15-37.95 1.72-65.33 13.37-94.22 40.32-25.23 23.72-43.34 59.29-46.36 92.07-.65 7.55-1.51 13.8-1.94 13.8-.43 0-6.25-2.59-13.15-5.6-11-4.74-14.66-5.39-30.19-4.74-14.45.86-20.05 2.16-31.91 7.98-18.33 9.06-34.5 25.23-44.63 44.85l-8.19 15.09-12.94 1.51C60.88 334.6 1.16 411.14 11.08 491.13c7.33 58.21 45.28 105.65 100.9 125.48l18.54 6.68h739.54l17.25-6.04c50.45-17.9 87.75-58.65 99.39-109.1 4.53-18.98 4.31-51.53-.21-69.21-8.19-31.48-32.77-66.19-60.37-85.17-7.98-5.61-11.64-9.49-11-11.64 5.39-18.11 8.19-44.63 7.12-67.06-4.31-84.3-53.26-159.33-128.5-197.07-40.32-20.24-87.11-29.3-128.5-24.56zm69.86 34.07c74.81 17.89 132.6 76.11 151.57 152.44 6.47 26.52 6.47 67.49 0 94-3.45 13.37-4.1 20.27-2.59 23.07 1.08 2.16 10.35 9.49 20.7 16.17 36.01 24.15 54.77 58.43 54.77 100.91 0 51.75-32.34 97.02-81.5 114.06l-14.45 4.95H137l-14.45-4.96c-48.94-16.82-81.5-62.09-81.5-112.98 0-33.2 10.35-60.58 31.69-83.22 20.91-22.21 47-34.93 79.34-38.16 18.11-1.94 23.93-5.17 25.87-14.45 6.25-28.68 32.34-50.88 61.88-53.04 17.25-1.29 30.19 1.94 43.98 10.57 11.43 7.33 18.54 7.98 24.58 1.94 3.67-3.67 4.31-7.12 4.31-25.44 0-37.52 10.13-62.74 35.36-87.97 38.38-38.38 91.42-46.14 141.01-20.91 12.51 6.25 19.84 8.84 23.29 7.98 2.8-.65 9.06-6.47 14.01-12.94 30.62-39.89 82.79-69.43 134.54-76.11 20.5-2.81 52.63-.87 74.19 4.09zM252.99 663.62c-2.59 1.29-7.12 7.76-9.92 14.45-13.58 30.19-27.38 65.11-27.38 68.78 0 11 18.97 18.11 26.3 9.49 5.17-6.04 31.91-72.88 31.91-79.78.01-10.14-11.64-17.47-20.91-12.94zM422.68 663.83c-4.1 2.16-8.84 10.78-20.91 39.24-8.41 20.27-15.52 39.24-15.52 42.48-.43 11.64 14.66 18.97 24.15 11.86 4.53-3.23 33.85-73.95 33.85-81.5-.01-9.92-12.09-16.82-21.57-12.08zM594.09 663.19c-6.69 2.59-7.98 4.96-23.5 42.26-14.88 36.65-16.82 45.28-10.35 51.1 5.39 4.96 16.17 4.53 20.7-.43 4.31-4.96 33.64-74.39 33.64-79.99-.01-8.85-12.09-16.39-20.49-12.94zM759.46 666.85c-3.67 3.67-11.64 20.7-20.91 43.12l-14.88 37.3 4.31 5.82c5.61 7.55 17.68 9.27 22.86 3.45 1.94-2.16 10.56-20.7 18.97-41.39 13.8-33.42 15.09-37.95 12.94-43.34-2.16-5.39-9.92-10.78-15.31-10.78-1.3 0-4.96 2.59-7.98 5.82zM330.61 680.87c-4.74 2.37-15.74 23.93-15.74 31.48 0 7.33 7.12 14.01 14.88 14.01 8.84 0 13.58-4.96 19.41-20.48 5.17-14.23 3.67-21.13-5.61-25.22-6.04-2.81-6.69-2.81-12.94.21zM500.73 680.44c-5.61 2.37-15.52 22.64-15.52 32.13 0 9.92 10.78 16.82 20.7 13.15 3.67-1.51 7.11-6.04 10.78-14.01 6.9-15.74 6.69-23.29-.43-28.89-6.26-4.97-8.2-5.19-15.53-2.38zM667.61 683.02c-6.9 6.47-14.23 27.17-11.86 33.42.86 2.59 4.1 6.25 7.33 8.41 8.84 5.82 16.6 1.08 23.5-14.23 6.9-15.52 7.11-20.27.21-26.95-6.46-6.68-12.28-6.9-19.18-.65zM838.37 682.38c-3.02 2.37-7.76 9.92-10.35 16.6-5.82 14.44-4.31 21.78 5.39 26.52 5.39 2.59 6.9 2.59 11.64 0 6.68-3.67 15.95-21.99 16.17-31.7.01-12.72-12.93-19.19-22.85-11.42zM295.9 759.56c-2.37 2.16-9.27 16.39-15.52 31.91-20.27 49.37-19.41 46.57-16.17 54.33 3.67 8.41 12.29 11.43 20.05 6.9 4.1-2.37 9.27-12.08 21.13-40.75 8.62-20.7 15.74-39.24 15.96-41.18 0-1.94-1.94-6.04-4.53-9.27-5.18-6.68-14.45-7.54-20.92-1.94zM465.15 759.56c-6.25 7.12-34.28 78.48-32.99 83.87 2.8 10.78 17.46 14.45 25.66 6.47 5.17-5.17 33.85-78.27 32.34-82.58-2.59-7.32-7.76-11.42-14.66-11.42-3.88 0-8.41 1.72-10.35 3.66zM635.27 760c-4.96 5.61-33.63 74.6-33.63 81.07 0 5.6 9.06 14.01 15.31 14.01 8.2 0 14.66-10.13 28.68-44.63 7.76-19.19 14.23-37.3 14.23-40.32-.01-12.29-16.62-18.97-24.59-10.13zM805.81 758.49c-4.74 3.67-33.85 73.95-33.85 81.71 0 3.88 1.94 7.55 5.6 10.35 7.12 5.61 11.86 5.61 17.9.65 4.96-4.1 34.71-74.17 34.71-81.93.01-10.57-15.3-17.25-24.36-10.78zM200.17 785.44c-4.53 4.96-12.5 23.5-12.5 28.89 0 5.39 9.27 14.88 14.66 14.88 7.33 0 14.88-8.19 19.84-21.56l4.96-13.15-4.31-5.82c-5.4-7.34-17.48-9.06-22.65-3.24zM370.71 783.93c-4.53 2.59-13.37 25.87-12.29 32.34.43 2.8 3.23 6.9 6.47 9.27 9.27 6.9 16.38 3.23 23.72-11.43 6.9-14.01 7.55-23.72 2.16-28.68-4.32-4.09-14.67-4.74-20.06-1.5zM539.54 784.57c-4.31 5.18-11.21 23.29-11.21 29.54 0 11.21 12.94 18.33 22.21 12.29 4.96-3.23 14.45-23.93 14.45-31.48 0-7.55-6.25-13.15-14.88-13.15-4.54 0-9.28 1.3-10.57 2.8zM708.79 785.65c-1.94 1.94-5.61 9.27-8.19 16.17-5.39 14.23-3.88 21.35 5.39 25.66 9.7 4.31 17.46-.86 23.93-16.6 6.04-14.01 5.82-19.62-.21-25.87-4.53-4.53-16.61-4.1-20.92.64zM173 852.28c-4.31 3.88-34.93 75.25-34.93 81.71 0 5.17 10.13 13.8 16.17 13.8 3.02 0 7.12-1.72 9.27-3.88 5.39-5.39 33.42-73.31 33.42-81.07.22-11.86-14.66-18.33-23.93-10.56zM343.12 852.28c-4.74 4.1-34.71 73.52-34.71 80.64 0 5.82 9.49 14.88 15.74 14.88 2.8 0 7.12-2.16 9.49-4.96 5.82-6.04 32.99-72.23 32.99-79.78-.01-12.08-14.03-18.55-23.51-10.78zM511.72 853.35c-5.61 6.25-32.99 72.44-32.99 79.99 0 6.68 7.55 14.45 14.23 14.45 2.59 0 6.68-1.72 9.27-3.88 4.96-4.1 34.71-73.52 34.71-81.07 0-6.25-8.62-14.23-15.31-14.23-3.01 0-7.54 2.16-9.91 4.74zM681.84 852.49c-5.39 5.39-33.42 73.31-33.42 81.07-.22 11.86 14.66 18.33 23.93 10.35 4.31-3.67 34.93-75.03 34.93-81.5 0-5.17-10.13-13.8-16.17-13.8-3.02 0-7.11 1.72-9.27 3.88zM243.07 886.77c-4.74 5.39-12.29 23.72-12.29 29.97 0 6.9 7.33 13.8 14.66 13.8 15.52 0 29.32-35.58 17.25-43.99-6.46-4.52-15.3-4.3-19.62.22zM414.48 884.62c-3.88 1.51-13.37 23.5-13.37 31.05 0 11.64 11.43 18.11 21.99 12.51 4.96-2.59 14.66-23.29 14.66-31.05.01-10.36-12.5-16.82-23.28-12.51zM584.17 885.26c-1.94 1.08-6.25 8.41-9.7 16.38-5.61 13.15-5.82 14.66-2.8 19.84 4.1 7.33 12.94 10.57 20.05 7.33 5.18-2.37 13.37-17.03 15.52-28.46 2.59-11.64-12.29-21.34-23.07-15.09zM752.13 886.77c-4.74 5.39-12.5 23.93-12.5 29.75 0 9.92 14.01 17.03 23.5 11.86 5.17-2.59 15.74-28.67 13.8-33.85-2.59-7.33-7.76-11.43-14.66-11.43-3.89.01-8.42 1.73-10.14 3.67z"/></svg>
