<svg viewBox="0 0 64 64" xmlns="http://www.w3.org/2000/svg"><path d="M39 12.58a1 1 0 001-1V9.44a1 1 0 10-2 0v2.14a1 1 0 001 1zM47.92 15a.91.91 0 00.45.11 1 1 0 00.89-.55s.26-.5 1.09-1.81a1 1 0 10-1.69-1.07 21.44 21.44 0 00-1.18 2 1 1 0 00.44 1.32zM55.33 21.94a1 1 0 00.54-.17s.4-.25 1.7-1a1 1 0 10-1-1.76c-1.39.76-1.8 1-1.84 1.06a1 1 0 00.56 1.83zM60 29.42h-2.15a1 1 0 000 2H60a1 1 0 000-2zM57.63 40.07l-1.75-1.13a1 1 0 10-1.11 1.67l1.79 1.15a1 1 0 001.38-.31 1 1 0 00-.31-1.38zM20.33 20.81c1.42.77 1.93 1 1.93 1a1.06 1.06 0 00.45.11 1 1 0 00.89-.55 1 1 0 00-.44-1.37s-.52-.25-1.87-1a1 1 0 00-1.36.4 1 1 0 00.4 1.41zM28.64 14.56a1 1 0 00.9.55A1 1 0 0030 15a1 1 0 00.45-1.34s-.26-.52-1-1.93a1 1 0 10-1.75 1c.68 1.27.93 1.82.94 1.83z"/><path d="M50.36 42.88a10.65 10.65 0 00-.74-2.19 14.29 14.29 0 003.63-6.46A14.58 14.58 0 0051.8 23a14.81 14.81 0 00-26.9 2.64A14.83 14.83 0 0010.41 38.7a8.46 8.46 0 001.05 16.86h38.22a6.41 6.41 0 006.14-6.43 6.31 6.31 0 00-5.46-6.25zM42.29 18a12.9 12.9 0 017.77 6 12.94 12.94 0 01-1.48 14.89 10.67 10.67 0 00-6-4.1h-.1c-.33-.08-.66-.14-1-.19h-.27a8.62 8.62 0 00-1.21-.12h-1.13A14.63 14.63 0 0027 25.72 12.74 12.74 0 0142.29 18zm7.34 35.58H11.46a6.46 6.46 0 01-.13-12.91h.95l.05-.93a13 13 0 0112.91-12.11 12.1 12.1 0 011.21.06h.27c.35 0 .69.09 1 .16h.13a12.93 12.93 0 0110.29 12.68 10.29 10.29 0 01-.56 3.8 1 1 0 00.56 1.3 1 1 0 00.37.07 1 1 0 00.93-.62 12.39 12.39 0 00.7-4.55 15.06 15.06 0 00-.57-4.05H40a7.17 7.17 0 011 .07h.2A8.57 8.57 0 0147.49 41l.47.86a9 9 0 01.56 2.14l.11.87h.88a4.37 4.37 0 014.31 4.31 4.41 4.41 0 01-4.19 4.38z"/></svg>
